<svg width="20" height="20" viewBox="0 0 20 20" fill="none" xmlns="http://www.w3.org/2000/svg">
<path d="M18.3333 0H1.66667C0.746528 0 0 0.839844 0 1.875V14.375C0 15.4102 0.746528 16.25 1.66667 16.25H8.33333L7.77778 18.125H5.27778C4.81597 18.125 4.44444 18.543 4.44444 19.0625C4.44444 19.582 4.81597 20 5.27778 20H14.7222C15.184 20 15.5556 19.582 15.5556 19.0625C15.5556 18.543 15.184 18.125 14.7222 18.125H12.2222L11.6667 16.25H18.3333C19.2535 16.25 20 15.4102 20 14.375V1.875C20 0.839844 19.2535 0 18.3333 0ZM17.7778 13.75H2.22222V2.5H17.7778V13.75Z" fill="#DADADA"/>
</svg>
