<svg width="20" height="20" viewBox="0 0 20 20" fill="none" xmlns="http://www.w3.org/2000/svg">
<path d="M20 10C20 15.5242 15.5242 20 10 20C4.47581 20 0 15.5242 0 10C0 4.47581 4.47581 0 10 0C15.5242 0 20 4.47581 20 10ZM14.2097 8.83468L11.2903 11.879V4.51613C11.2903 3.97984 10.8589 3.54839 10.3226 3.54839H9.67742C9.14113 3.54839 8.70968 3.97984 8.70968 4.51613V11.879L5.79032 8.83468C5.41532 8.44355 4.79032 8.43548 4.40726 8.81855L3.96774 9.2621C3.58871 9.64113 3.58871 10.254 3.96774 10.629L9.31452 15.9798C9.69355 16.3589 10.3065 16.3589 10.6815 15.9798L16.0323 10.629C16.4113 10.25 16.4113 9.6371 16.0323 9.2621L15.5927 8.81855C15.2097 8.43548 14.5847 8.44355 14.2097 8.83468V8.83468Z" fill="#DADADA"/>
</svg>
