<svg width="160" height="40" viewBox="0 0 160 40" fill="none" xmlns="http://www.w3.org/2000/svg">
<path d="M0 20C0 31.0023 0.0303605 40 0.0708412 40C0.131562 40 8.37951 38.6304 9.39152 38.449L9.91777 38.3583V23.6735H16.1923V22.3311C16.1923 21.5964 16.2226 19.6825 16.2631 18.068L16.3238 15.1474H9.91777V8.70748H13.6116C15.6458 8.70748 17.3055 8.68934 17.3055 8.66213C17.3055 8.56236 18.1151 0.816326 18.1657 0.426304L18.2264 0H0V20ZM151.378 1.17007L143.302 1.76871V37.9048L143.636 37.9501C143.929 37.9955 159.565 39.0113 159.879 39.0023C159.97 39.0023 160 38.0408 160 34.5125V30.0227H153.118V23.4921H158.988V15.6916H152.916V10.5215L153.149 10.4853C153.27 10.458 154.302 10.4218 155.446 10.3855C156.589 10.3583 158.077 10.3129 158.765 10.2766L160 10.2222V0.544218L159.727 0.553288C159.565 0.562358 155.81 0.834467 151.378 1.17007ZM99.5319 2.42177C99.6331 3.3288 100.787 16.9977 100.767 17.0159C100.756 17.034 99.2688 13.7596 97.4573 9.7415C95.6559 5.72336 94.1379 2.39456 94.0974 2.33107C94.0367 2.23129 91.2435 2.69388 86.6591 3.56463L86.2239 3.64626V34.8299H95.2309L95.1803 34.1769C95.0791 32.9614 94.7046 22.9116 94.7451 22.5125C94.7755 22.1587 95.0791 22.7755 97.9532 28.9977C99.6939 32.78 101.171 35.9093 101.212 35.9637C101.273 36.0181 102.679 35.9365 105.068 35.7551C107.142 35.5918 108.842 35.4467 108.842 35.4376C108.853 35.4286 108.802 28.8889 108.731 20.907C108.66 12.9252 108.6 5.38775 108.6 4.14512L108.589 1.90476H99.4712L99.5319 2.42177ZM28.2859 2.45805C22.234 2.82086 18.9045 6.53061 17.852 14.059C17.6395 15.619 17.5484 20.9161 17.7002 22.7664C18.2062 28.771 20.0177 32.6712 23.2359 34.6576C24.9665 35.7188 27.5674 36.2902 30.1379 36.1542C33.0626 36.0091 35.0563 35.2653 36.8476 33.6599C38.315 32.3447 39.1145 31.1111 39.8836 29.0068C40.9564 26.068 41.4421 21.678 41.1992 17.1066C40.926 11.9909 40.0658 8.80726 38.2947 6.36735C36.6047 4.04535 33.933 2.6576 30.8159 2.48526C30.32 2.45805 29.7938 2.43084 29.6521 2.4127C29.5104 2.40363 28.9032 2.42177 28.2859 2.45805ZM29.7128 9.5873C30.4516 10.3039 30.7653 13.161 30.7653 19.2744C30.7653 26.8027 30.2391 29.932 29.0854 29.2608C28.5895 28.9615 28.2151 27.5011 28.0329 25.0794C27.9013 23.3107 27.9013 15.2109 28.0329 13.5147C28.2252 11.1202 28.5693 9.79592 29.0854 9.47846C29.3688 9.29705 29.4194 9.30612 29.7128 9.5873ZM42.5047 18.9478V35.4649H51.7849L51.8457 34.3129C51.8861 33.6689 51.9671 31.5828 52.0278 29.6599C52.0885 27.737 52.1695 26.0499 52.21 25.9138C52.2606 25.7234 52.6958 26.9478 54.0316 31.0839C55.0032 34.068 55.8229 36.5442 55.8634 36.5805C55.9443 36.6621 65.4371 35.9909 65.5383 35.9002C65.5686 35.8639 64.5161 32.898 63.2005 29.288L60.8121 22.7392L61.3182 22.3401C62.9981 21.0249 64.3846 18.4853 64.7792 15.9728C64.9513 14.8753 64.84 12.1542 64.5768 11.1474C63.5648 7.20181 60.883 4.13605 57.4624 2.9932C55.9747 2.5034 56.0961 2.51247 49.0626 2.47619L42.5047 2.43991V18.9478ZM52.9386 10.2585C53.6572 10.576 54.2441 11.3923 54.5579 12.517C54.7704 13.2698 54.74 15.6553 54.5073 16.4172C54.0721 17.8503 53.303 18.6848 52.1493 19.0023L51.9165 19.0567V9.97732L52.2505 10.0408C52.4225 10.068 52.7362 10.1678 52.9386 10.2585ZM65.0727 6.75737V10.9751H70.234V35.2834H79.9494V12.4263H85.2119V3.99093L84.9892 3.95465C84.7767 3.9093 65.4775 2.53061 65.2043 2.53968C65.1031 2.53968 65.0727 3.44671 65.0727 6.75737ZM110.715 19.9093V36.3719H120.734V3.44671H110.715V19.9093ZM132.17 4.58957C126.684 4.85261 122.12 5.07029 122.029 5.07029C121.857 5.07936 121.847 5.3424 121.847 9.3424V13.6054H127.008V37.4603H136.825V12.6077H142.29V8.34467C142.29 5.99546 142.259 4.0907 142.219 4.0907C142.168 4.09977 137.655 4.31746 132.17 4.58957Z" fill="#FFDA0B"/>
</svg>
