<svg width="20" height="20" viewBox="0 0 20 20" fill="none" xmlns="http://www.w3.org/2000/svg">
<g clip-path="url(#clip0)">
<path d="M19.823 14.543C19.4307 15.0977 18.4758 15.4922 18.4758 15.4922L11.3543 18.3672V16.2461L16.5938 14.1445C17.1876 13.9063 17.2813 13.5664 16.7952 13.3867C16.3126 13.207 15.4376 13.2578 14.8438 13.5L11.3543 14.8867V12.6836C12.1598 12.3789 12.9897 12.1523 13.9827 12.0273C15.4029 11.8516 17.139 12.0508 18.5036 12.6328C20.0383 13.1797 20.2119 13.9883 19.823 14.543ZM12.0313 10.9297V5.5C12.0313 4.86328 11.9272 4.27734 11.3959 4.10937C10.9897 3.96094 10.7362 4.38672 10.7362 5.02344V18.6133L7.47927 17.4492V1.25C8.86468 1.53906 10.882 2.22266 11.9654 2.63281C14.7258 3.69922 15.6598 5.02734 15.6598 8.01562C15.6598 10.9258 14.0626 12.0312 12.0313 10.9297V10.9297ZM1.5001 16.0234C-0.07629 15.5234 -0.340179 14.4805 0.378571 13.8828C1.04177 13.3281 2.17371 12.9102 2.17371 12.9102L6.84385 11.043V13.1719L3.48274 14.5234C2.88899 14.7617 2.79871 15.1016 3.28135 15.2813C3.76399 15.4609 4.63899 15.4102 5.23274 15.168L6.84385 14.5078V16.4141C5.05218 16.7773 3.32302 16.6992 1.5001 16.0234V16.0234Z" fill="#DADADA"/>
</g>
<defs>
<clipPath id="clip0">
<rect width="20" height="20" fill="white"/>
</clipPath>
</defs>
</svg>
