<svg width="20" height="20" viewBox="0 0 20 20" fill="none" xmlns="http://www.w3.org/2000/svg">
<path d="M14.4492 12.4297C16.1797 14.5508 16.9766 16.289 16.5742 17.0664C16.2656 17.6562 14.3594 18.8086 12.957 19.25C11.8008 19.6133 10.2852 19.7695 9.03517 19.6484C7.54298 19.5039 6.03126 18.9687 4.73439 18.125C3.64454 17.4141 3.39845 17.1211 3.39845 16.539C3.39845 15.3711 4.6836 13.3242 6.88282 10.9883C8.13282 9.66405 9.8711 8.10936 10.0625 8.15233C10.4297 8.23436 13.3555 11.0859 14.4492 12.4297V12.4297ZM7.3672 5.61717C6.20704 4.56639 5.09767 3.5117 3.9922 3.14061C3.39845 2.94139 3.35548 2.95311 2.8711 3.45701C1.73048 4.64451 0.781262 6.5703 0.515637 8.23827C0.304699 9.5742 0.277355 9.9492 0.351574 10.6015C0.570324 12.5742 1.02736 13.9375 1.93361 15.3242C2.3047 15.8945 2.40626 16 2.29689 15.7109C2.13282 15.2812 2.28517 14.2461 2.66798 13.2109C3.22657 11.6875 4.77345 8.80077 7.3672 5.61717V5.61717ZM19.5391 8.09764C18.8789 4.97264 16.9024 3.00779 16.625 3.00779C16.3399 3.00779 15.6797 3.2617 15.2188 3.55076C14.3086 4.11717 13.6172 4.77733 12.707 5.61326C14.3633 7.6953 16.6992 11.0586 17.5078 13.5156C17.7734 14.3242 17.8867 15.1211 17.7969 15.5586C17.7305 15.8906 17.7305 15.8906 17.8516 15.7383C18.0899 15.4375 18.6289 14.5156 18.8438 14.039C19.1328 13.4062 19.4297 12.4687 19.5703 11.7461C19.7383 10.8672 19.7227 8.98045 19.5391 8.09764V8.09764ZM5.51954 1.67967C7.38282 1.58201 9.8047 3.02733 9.98438 3.06248C10.0117 3.06639 10.3906 2.89842 10.8281 2.68358C13.3242 1.46873 14.5 1.67576 15.0234 1.6992C12.5274 0.164043 9.0586 -0.253926 5.88673 1.24217C4.97267 1.67576 4.94923 1.70701 5.51954 1.67967Z" fill="#DADADA"/>
</svg>
